<?xml version="1.0" standalone="no"?>
<!DOCTYPE svg PUBLIC "-//W3C//DTD SVG 20010904//EN"
 "http://www.w3.org/TR/2001/REC-SVG-20010904/DTD/svg10.dtd">
<svg version="1.0" xmlns="http://www.w3.org/2000/svg"
 width="256.000000pt" height="256.000000pt" viewBox="0 0 256.000000 256.000000"
 preserveAspectRatio="xMidYMid meet">
<metadata>
Created by potrace 1.11, written by Peter Selinger 2001-2013
</metadata>
<g transform="translate(0.000000,256.000000) scale(0.100000,-0.100000)"
fill="#000000" stroke="none">
<path d="M1180 2239 c-135 -15 -253 -28 -262 -28 -17 -1 -18 -17 -18 -191 l0
-190 -120 0 -120 0 0 -220 0 -220 119 0 119 0 4 -332 c5 -299 7 -341 26 -411
69 -254 247 -376 548 -377 56 0 140 7 187 15 93 16 220 59 237 80 11 13 4 41
-86 342 l-25 82 -47 -21 c-67 -29 -158 -34 -201 -11 -67 35 -71 55 -71 360 l0
273 175 0 175 0 -2 218 -3 217 -172 3 -173 2 0 220 0 220 -22 -1 c-13 -1 -133
-14 -268 -30z"/>
</g>
</svg>
